<?xml version="1.0" encoding="UTF-8"?>
<svg id="Camada_2" data-name="Camada 2" xmlns="http://www.w3.org/2000/svg" viewBox="0 0 111.67 79.24">
  <g id="Camada_1-2" data-name="Camada 1">
    <g>
      <path d="M7.26,32.72c.07.97.6,1.82,1.58,2.53.5.36,1,.63,1.48.79H0c.48-.16.97-.43,1.46-.79,1-.71,1.53-1.56,1.6-2.53V3.37c-.07-.97-.6-1.82-1.6-2.53C.97.47.48.21,0,.04h10.32c-.48.16-.97.43-1.48.79-.98.71-1.51,1.56-1.58,2.53v29.36Z"/>
      <path d="M34.19,24.48c2.03,2.99,3.81,5.23,5.34,6.73,2.74,2.67,5.25,3.77,7.52,3.3-.11.25-.42.5-.93.76-1.01.52-2.52.77-4.54.77s-4.46-1.73-7.35-5.19c-1.44-1.73-2.68-3.47-3.71-5.2-.46-.83-1.22-1.66-2.3-2.48-2.16-1.66-4.78-2.5-7.86-2.5v12.06c.07.97.6,1.82,1.58,2.53.49.35.98.61,1.46.77h-10.25c.48-.16.97-.42,1.46-.77.98-.71,1.51-1.56,1.58-2.53V3.58c-.07-.96-.6-1.8-1.58-2.51-.49-.36-.98-.63-1.46-.79h7.21c2.52-.41,5.04-.36,7.56.16,5.05,1.03,7.58,3.87,7.58,8.51.08.84-.09,1.92-.51,3.22-.82,2.59-2.47,4.99-4.96,7.21,1.21,1.11,2.59,2.82,4.15,5.12ZM26.38,18.17c.82-.04,1.64-.35,2.46-.95,1.63-1.2,2.44-3.22,2.44-6.06,0-3.11-.84-5.54-2.51-7.31-1.37-1.44-2.91-2.16-4.61-2.16s-2.65.05-2.87.14c-.53.22-.79.97-.79,2.25,0,1.86-.05,6.56-.14,14.1h6.01Z"/>
      <path d="M58.2.06c4.15,0,8,1.69,11.55,5.08,3.9,3.74,5.85,8.28,5.85,13.62s-2.01,9.53-6.03,12.9c-3.48,2.92-7.27,4.38-11.37,4.38-4.45,0-8.44-1.27-11.95-3.81-4.42-3.2-6.63-7.73-6.63-13.59,0-8.19,3.1-13.75,9.3-16.66C52.01.51,55.11-.13,58.2.06ZM44.12,18.04c0,4.84,1.2,8.67,3.59,11.48,1.7,1.99,3.9,3.38,6.59,4.17V2.49c-2.7.77-4.89,2.14-6.59,4.11-2.39,2.79-3.59,6.6-3.59,11.44ZM56.55,2.03c-.4.05-.79.11-1.18.19v31.75c.41.08.8.15,1.18.21V2.03ZM58.32,34.27c.45-.01.92-.05,1.42-.11V2.26c-.48-.11-.96-.19-1.42-.25v32.26ZM60.82,33.97c2.71-.57,4.92-1.81,6.64-3.71,2.44-2.68,3.66-6.52,3.66-11.5s-1.22-8.95-3.66-11.87c-1.72-2.06-3.94-3.51-6.64-4.34v31.41Z"/>
      <path d="M111.45.04c-.48.16-.97.43-1.46.79-1,.71-1.53,1.56-1.6,2.53v32.68l-.02-.04v.04l-26.17-27.16v23.84c.07.97.6,1.82,1.6,2.53.49.36.98.63,1.46.79h-10.32c.48-.16.97-.43,1.46-.79,1-.71,1.53-1.56,1.6-2.53V.04l26.19,27.49V3.37c-.07-.97-.6-1.82-1.6-2.53-.49-.36-.98-.63-1.46-.79h10.32Z"/>
      <path d="M30.36,74.52c.98,1.42,2.12,2.47,3.41,3.15.64.33,1.19.52,1.63.56-1.03.66-1.83.98-2.41.98-1.03-.01-2.35-.69-3.96-2.04-.3-.26-.66-.54-1.07-.84-3.07,1.95-6.2,2.92-9.39,2.92-4.45,0-8.44-1.27-11.95-3.81-4.42-3.2-6.63-7.73-6.63-13.59,0-8.19,3.1-13.75,9.3-16.66,3.09-1.46,6.19-2.1,9.28-1.92,4.15,0,8,1.69,11.55,5.08,3.9,3.74,5.85,8.28,5.85,13.62,0,5.03-1.88,9.21-5.62,12.55ZM21.2,77.17c1.84-.39,3.47-1.1,4.89-2.13-1.37-.84-2.51-1.38-3.43-1.62,1.78-1.78,3.71-2.02,5.78-.7,2.04-2.64,3.06-6.22,3.06-10.76,0-4.99-1.22-8.95-3.66-11.87-1.72-2.06-3.94-3.51-6.64-4.34l-1.07-.3c-.48-.11-.96-.19-1.42-.25l-1.78.02c-.4.05-.79.11-1.18.19l-1.07.26c-2.7.77-4.89,2.14-6.59,4.11-2.39,2.79-3.59,6.6-3.59,11.44s1.2,8.67,3.59,11.48c1.7,1.99,3.9,3.38,6.59,4.17l1.07.28c.41.08.8.15,1.18.21l1.78.09c.56-.02,1.04-.06,1.42-.11l1.07-.19Z"/>
      <path d="M71.68,43.24c-.46.16-.93.42-1.42.76-.97.7-1.5,1.53-1.58,2.48v15.94c0,5.2-1.55,9.39-4.64,12.55-2.78,2.85-6.05,4.27-9.83,4.27-4.09,0-7.56-1.24-10.41-3.71-3.48-3.04-5.22-7.45-5.22-13.24v-15.96c-.18-1.07-.68-1.9-1.51-2.51-.42-.3-.83-.5-1.21-.58h10.21c-.48.16-.97.42-1.46.77-.97.71-1.5,1.55-1.58,2.51l-.04,10.85-.02,4.34c0,8.71,2.48,13.79,7.44,15.24l1.02.26c.4.08.79.15,1.16.19l1.72.11c.55-.02,1.01-.06,1.39-.12l1.04-.18c2.29-.48,4.03-1.68,5.24-3.6,1.54-2.46,2.3-6.19,2.3-11.2v-15.24c0-1.37-.46-2.44-1.39-3.22-.47-.38-.94-.62-1.41-.72h10.2Z"/>
      <path d="M81.76,75.92c.07.97.6,1.82,1.58,2.53.5.36,1,.63,1.48.79h-10.32c.48-.16.97-.43,1.46-.79,1-.71,1.53-1.56,1.6-2.53v-29.36c-.07-.97-.6-1.82-1.6-2.53-.49-.36-.98-.63-1.46-.79h10.32c-.48.16-.97.43-1.48.79-.98.71-1.51,1.56-1.58,2.53v29.36Z"/>
      <path d="M110.34,45.78l-17.24,31.39h10.93c1.49,0,2.57-.66,3.25-1.99.34-.67.53-1.33.56-1.99l1.39,6.05h-21.57l2.29-4.45,15.49-29.48h-11.07c-1.48,0-2.55.66-3.23,1.99-.34.66-.53,1.32-.58,1.99l-1.37-6.05h22.5l-1.34,2.53Z"/>
    </g>
  </g>
</svg>